<svg width="17" height="18" viewBox="0 0 21 22" fill="none" xmlns="http://www.w3.org/2000/svg">
    <g clip-path="url(#clip0_3103_1256)">
        <path d="M10.3472 12.2775C10.0084 12.2775 9.68339 12.1429 9.44379 11.9033C9.20419 11.6637 9.06959 11.3387 9.06959 10.9999C9.06959 10.661 9.20419 10.336 9.44379 10.0964C9.68339 9.85685 10.0084 9.72224 10.3472 9.72224C10.686 9.72224 11.011 9.85685 11.2506 10.0964C11.4902 10.336 11.6248 10.661 11.6248 10.9999C11.6248 11.3387 11.4902 11.6637 11.2506 11.9033C11.011 12.1429 10.686 12.2775 10.3472 12.2775ZM9.89748 14.8276C10.0465 15.0064 10.1964 15.1802 10.3472 15.3463C10.498 15.1802 10.6479 15.0073 10.7969 14.8276C10.4971 14.8339 10.1973 14.8339 9.89748 14.8276V14.8276ZM8.19826 14.7211C7.54418 14.653 6.89442 14.5484 6.25203 14.4077C6.18815 14.7058 6.1396 14.9954 6.10724 15.273C5.94541 16.6213 6.17112 17.4407 6.51437 17.6383C6.85762 17.8368 7.67955 17.6221 8.76722 16.8087C8.99123 16.6409 9.21694 16.4544 9.4435 16.2508C9.00017 15.7646 8.58444 15.2539 8.19826 14.7211V14.7211ZM14.4424 14.4077C13.8317 14.5439 13.1792 14.6496 12.4961 14.7211C12.11 15.2539 11.6942 15.7646 11.2509 16.2508C11.4775 16.4552 11.7032 16.6409 11.9272 16.8087C13.0148 17.6221 13.8368 17.8368 14.18 17.6383C14.5233 17.4407 14.7481 16.6213 14.588 15.273C14.5529 14.9825 14.5045 14.6938 14.4432 14.4077H14.4424ZM15.6774 14.078C16.1688 16.3258 15.9108 18.1153 14.8188 18.7456C13.7269 19.3759 12.0481 18.7047 10.3472 17.1554C8.64627 18.7047 6.9675 19.375 5.87557 18.7447C4.78363 18.1144 4.52556 16.3258 5.01616 14.0772C2.82378 13.3796 1.40393 12.2604 1.40393 10.9999C1.40393 9.73928 2.82378 8.62094 5.01616 7.92166C4.52556 5.67392 4.78363 3.88442 5.87557 3.25413C6.9675 2.62384 8.64627 3.29501 10.3472 4.84433C12.0481 3.29501 13.7269 2.62469 14.8188 3.25498C15.9108 3.88527 16.1688 5.67392 15.6782 7.92251C17.8706 8.62009 19.2905 9.73928 19.2905 10.9999C19.2905 12.2604 17.8706 13.3788 15.6782 14.078H15.6774ZM9.44265 5.74887C9.22605 5.55281 9.00067 5.36666 8.76722 5.19098C7.67955 4.37757 6.85762 4.16293 6.51437 4.36139C6.17112 4.55899 5.94626 5.37837 6.10639 6.72667C6.14046 7.00519 6.18815 7.29393 6.25118 7.59204C6.89384 7.45128 7.54389 7.34663 8.19826 7.2786C8.60284 6.72241 9.02019 6.21052 9.4435 5.74887H9.44265ZM12.4961 7.2786C13.1792 7.35015 13.8317 7.45661 14.4424 7.59204C14.5062 7.29393 14.5548 7.00434 14.5872 6.72667C14.749 5.37837 14.5233 4.55899 14.18 4.36139C13.8368 4.16293 13.0148 4.37757 11.9272 5.19098C11.6934 5.36663 11.4678 5.55279 11.2509 5.74887C11.6742 6.21052 12.0916 6.72241 12.4961 7.2786V7.2786ZM10.7969 7.17213C10.6479 6.99327 10.498 6.81951 10.3472 6.65342C10.1964 6.81951 10.0465 6.99241 9.89748 7.17213C10.1973 7.16577 10.4971 7.16577 10.7969 7.17213V7.17213ZM7.25709 13.303C7.10169 13.0467 6.95175 12.7871 6.80737 12.5245C6.72645 12.7434 6.6515 12.9589 6.58336 13.1726C6.80226 13.2203 7.02712 13.2638 7.25624 13.303H7.25709ZM8.90265 13.5023C9.86436 13.5737 10.83 13.5737 11.7918 13.5023C12.3345 12.705 12.8173 11.8686 13.2363 10.9999C12.8173 10.1311 12.3345 9.29471 11.7918 8.49744C10.83 8.42601 9.86436 8.42601 8.90265 8.49744C8.35992 9.29471 7.87707 10.1311 7.4581 10.9999C7.87707 11.8686 8.35992 12.705 8.90265 13.5023V13.5023ZM13.887 9.47524C13.9679 9.25634 14.0429 9.04085 14.111 8.82706C13.8877 8.77861 13.6634 8.73516 13.4382 8.69675C13.5933 8.95304 13.7429 9.2126 13.887 9.47524ZM5.34749 9.15754C5.05789 9.25123 4.78363 9.35344 4.52641 9.46416C3.27861 9.99906 2.68154 10.6038 2.68154 10.9999C2.68154 11.3959 3.27776 12.0006 4.52641 12.5355C4.78363 12.6463 5.05789 12.7485 5.34749 12.8422C5.53657 12.2459 5.7708 11.6276 6.05017 10.9999C5.78172 10.3994 5.54713 9.78428 5.34749 9.15754V9.15754ZM6.58251 8.82706C6.6515 9.04 6.72645 9.25634 6.80737 9.47438C6.95176 9.21202 7.1017 8.95275 7.25709 8.69675C7.02712 8.73593 6.80226 8.77937 6.58336 8.82706H6.58251ZM15.3469 12.8422C15.6365 12.7485 15.9108 12.6463 16.168 12.5355C17.4158 12.0006 18.0129 11.3959 18.0129 10.9999C18.0129 10.6038 17.4166 9.99906 16.168 9.46416C15.8991 9.34961 15.6251 9.24729 15.3469 9.15754C15.1578 9.75376 14.9236 10.3721 14.6442 10.9999C14.9236 11.6276 15.1578 12.2451 15.3469 12.8422V12.8422ZM14.1119 13.1726C14.0429 12.9597 13.9679 12.7434 13.887 12.5253C13.7426 12.7877 13.5927 13.047 13.4373 13.303C13.6673 13.2638 13.8921 13.2203 14.111 13.1726H14.1119Z"
              fill="#607B96"/>
    </g>
    <defs>
        <clipPath id="clip0_3103_1256">
            <rect width="20.4418" height="20.4418" fill="#607B96" transform="translate(0.126343 0.779053)"/>
        </clipPath>
    </defs>
</svg>
